<svg id="Component_11_2" data-name="Component 11 – 2" xmlns="http://www.w3.org/2000/svg" width="183.036" height="156.56" viewBox="0 0 183.036 156.56">
  <line id="Line_15" data-name="Line 15" x1="16" y2="48" transform="translate(15 103.5)" fill="none" stroke="#707070" stroke-linecap="round" stroke-width="8"/>
  <line id="Line_16" data-name="Line 16" x2="16" y2="48" transform="translate(90.25 103.5)" fill="none" stroke="#707070" stroke-linecap="round" stroke-width="8"/>
  <g id="Component_10_1" data-name="Component 10 – 1">
    <path id="Path_54" data-name="Path 54" d="M59,0A59,59,0,1,1,0,59,59,59,0,0,1,59,0Z" fill="#e8e0da"/>
    <path id="Path_53" data-name="Path 53" d="M48,0A48,48,0,1,1,0,48,48,48,0,0,1,48,0Z" transform="translate(11 11)" fill="#3f4b4e"/>
    <path id="Path_52" data-name="Path 52" d="M38,0A38,38,0,1,1,0,38,38,38,0,0,1,38,0Z" transform="translate(21 21)" fill="#67d1c1"/>
    <path id="Path_51" data-name="Path 51" d="M27,0A27,27,0,1,1,0,27,27,27,0,0,1,27,0Z" transform="translate(32 32)" fill="#ef3d33"/>
    <circle id="Ellipse_6" data-name="Ellipse 6" cx="14" cy="14" r="14" transform="translate(45 45)" fill="#f9bf4c"/>
    <g id="Group_34" data-name="Group 34">
      <g id="Group_31" data-name="Group 31">
        <line id="Line_9" data-name="Line 9" y1="14" x2="14" transform="translate(147.5 45.5)" fill="none" stroke="#e8b751" stroke-linecap="round" stroke-width="5"/>
        <line id="Line_13" data-name="Line 13" x1="14" y1="13.034" transform="translate(147.5 59.966)" fill="none" stroke="#e8b751" stroke-linecap="round" stroke-width="5"/>
      </g>
      <g id="Group_32" data-name="Group 32" transform="translate(9)">
        <line id="Line_9-2" data-name="Line 9" y1="14" x2="14" transform="translate(147.5 45.5)" fill="none" stroke="#e8b751" stroke-linecap="round" stroke-width="5"/>
        <line id="Line_13-2" data-name="Line 13" x1="14" y1="13.034" transform="translate(147.5 59.966)" fill="none" stroke="#e8b751" stroke-linecap="round" stroke-width="5"/>
      </g>
      <g id="Group_33" data-name="Group 33" transform="translate(18)">
        <line id="Line_9-3" data-name="Line 9" y1="14" x2="14" transform="translate(147.5 45.5)" fill="none" stroke="#e8b751" stroke-linecap="round" stroke-width="5"/>
        <line id="Line_13-3" data-name="Line 13" x1="14" y1="13.034" transform="translate(147.5 59.966)" fill="none" stroke="#e8b751" stroke-linecap="round" stroke-width="5"/>
      </g>
    </g>
    <path id="Path_56" data-name="Path 56" d="M0,0H104" transform="translate(59.5 59.5)" fill="none" stroke="#f8f3d1" stroke-linecap="round" stroke-width="7"/>
    <path id="Path_55" data-name="Path 55" d="M0,0H108" transform="translate(58 62)" fill="none" stroke="#bfbcbc" stroke-linecap="round" stroke-width="2"/>
  </g>
</svg>
