<svg id="Component_9_1" data-name="Component 9 – 1" xmlns="http://www.w3.org/2000/svg" xmlns:xlink="http://www.w3.org/1999/xlink" width="792" height="855" viewBox="0 0 792 855">
  <defs>
    <clipPath id="clip-path">
      <rect id="Rectangle_10" data-name="Rectangle 10" width="65.459" height="62.852" fill="rgba(0,0,0,0)"/>
    </clipPath>
    <clipPath id="clip-path-2">
      <rect id="Rectangle_11" data-name="Rectangle 11" width="94.206" height="65.241" fill="rgba(0,0,0,0)"/>
    </clipPath>
    <clipPath id="clip-path-3">
      <rect id="Rectangle_19" data-name="Rectangle 19" width="72.447" height="77.807" fill="rgba(0,0,0,0)"/>
    </clipPath>
    <clipPath id="clip-path-4">
      <rect id="Rectangle_17" data-name="Rectangle 17" width="23.711" height="24.59" fill="rgba(0,0,0,0)"/>
    </clipPath>
    <clipPath id="clip-path-5">
      <rect id="Rectangle_20" data-name="Rectangle 20" width="90.043" height="67" fill="rgba(0,0,0,0)"/>
    </clipPath>
    <clipPath id="clip-path-6">
      <rect id="Rectangle_24" data-name="Rectangle 24" width="71.369" height="75.117" fill="rgba(0,0,0,0)"/>
    </clipPath>
  </defs>
  <g id="Ellipse_3" data-name="Ellipse 3" transform="translate(0 63)" fill="#fff" stroke="#601028" stroke-width="9">
    <circle cx="396" cy="396" r="396" stroke="none"/>
    <circle cx="396" cy="396" r="391.5" fill="none"/>
  </g>
  <g id="Group_15" data-name="Group 15" transform="translate(94.921 425.582)">
    <g id="Group_14" data-name="Group 14" transform="translate(0 0)" clip-path="url(#clip-path)">
      <path id="Path_20" data-name="Path 20" d="M65.134,10.418V38.9c0,5.2-3.858,9.418-8.617,9.418h-33.8L10.4,61.413V48.307H9.617C4.858,48.307,1,44.091,1,38.889V10.418C1,5.216,4.858,1,9.617,1H56.53c4.754.008,8.6,4.222,8.6,9.418" transform="translate(-0.337 -0.276)" fill="#fff"/>
      <path id="Path_21" data-name="Path 21" d="M65.134,10.418V38.9c0,5.2-3.858,9.418-8.617,9.418h-33.8L10.4,61.413V48.307H9.617C4.858,48.307,1,44.091,1,38.889V10.418C1,5.216,4.858,1,9.617,1H56.53C61.284,1.008,65.134,5.222,65.134,10.418Z" transform="translate(-0.337 -0.276)" fill="rgba(0,0,0,0)" stroke="#000" stroke-miterlimit="10" stroke-width="2"/>
      <line id="Line_1" data-name="Line 1" x2="24.498" transform="translate(14.754 12.707)" fill="none" stroke="#000" stroke-linecap="round" stroke-miterlimit="10" stroke-width="6"/>
      <line id="Line_3" data-name="Line 3" x2="34.4" transform="translate(14.754 23.334)" fill="none" stroke="#000" stroke-linecap="round" stroke-miterlimit="10" stroke-width="6"/>
      <line id="Line_4" data-name="Line 4" x2="17.2" transform="translate(14.754 34.926)" fill="none" stroke="#000" stroke-linecap="round" stroke-miterlimit="10" stroke-width="6"/>
    </g>
  </g>
  <g id="Group_17" data-name="Group 17" transform="translate(141.052 250.344)">
    <g id="Group_16" data-name="Group 16" transform="translate(0 0)" clip-path="url(#clip-path-2)">
      <path id="Path_22" data-name="Path 22" d="M21.675,37.486a9.883,9.883,0,1,0-11.725,0C4.087,38.944,0,42.512,0,46.7V68.433H31.617V47.327h-.042a5.823,5.823,0,0,0,.042-.662c.017-4.163-4.112-7.722-9.942-9.179" transform="translate(0 -3.192)"/>
      <path id="Path_23" data-name="Path 23" d="M106.342,46.659c0-4.188-4.121-7.721-9.958-9.212a9.883,9.883,0,1,0-11.725,0C78.8,38.9,74.7,42.472,74.7,46.659a5.826,5.826,0,0,0,.042.662H74.7V68.394h31.617V47.322h-.042a5.839,5.839,0,0,0,.067-.662" transform="translate(-12.136 -3.186)"/>
      <path id="Path_24" data-name="Path 24" d="M66.091,26.2a16.466,16.466,0,1,0-26.86-.41L33.05,32.277l7.655-4.64a16.458,16.458,0,0,0,23.255.946q.4-.368.774-.762l6.516,4.456Z" transform="translate(-5.37 0)"/>
      <path id="Path_25" data-name="Path 25" d="M54.084,3.927A13.174,13.174,0,1,1,40.91,17.1,13.175,13.175,0,0,1,54.084,3.927" transform="translate(-6.647 -0.638)" fill="#fff"/>
      <path id="Path_26" data-name="Path 26" d="M54.326,12.514c0-1.089-1.265-2.58-1.977-3.292a3.762,3.762,0,0,0-2.638-1.315c-1.089,0-1.918,1.256-2.638,1.977s-.653.838-.653,1.977a3.953,3.953,0,0,0,6.742,2.789c.729-.745,1.164-1.072,1.164-2.136" transform="translate(-7.541 -1.285)"/>
      <path id="Path_27" data-name="Path 27" d="M60.839,20.408c1.1,0,2.513,1.34,3.233,2.077a3.727,3.727,0,0,1,1.24,2.672c0,1.089-1.323,1.876-2.06,2.571s-.9.637-1.993.6A3.962,3.962,0,0,1,58.67,21.5c.737-.678,1.08-1.089,2.169-1.089" transform="translate(-9.331 -3.316)"/>
      <path id="Path_28" data-name="Path 28" d="M48.756,15.728a7.621,7.621,0,0,0,2.63,7.245A8.057,8.057,0,0,0,58.63,24.3l-.653-1.977A5.779,5.779,0,0,1,53.362,21c-1.6-1.214-3.023-2.6-2.63-4.606Z" transform="translate(-7.901 -2.556)"/>
    </g>
  </g>
  <g id="Group_22" data-name="Group 22" transform="translate(334.941 160.264)">
    <g id="Group_21" data-name="Group 21" transform="translate(0 0)" clip-path="url(#clip-path-3)">
      <path id="Path_29" data-name="Path 29" d="M10.05,12.69H51.207a10.051,10.051,0,0,1,10.05,10.05v30.62a10.051,10.051,0,0,1-10.05,10.05H10.05A10.051,10.051,0,0,1,0,53.361V22.74A10.051,10.051,0,0,1,10.05,12.69" transform="translate(0 -2.062)"/>
      <path id="Path_30" data-name="Path 30" d="M14.824.5h0a2.636,2.636,0,0,1,2.634,2.638V14.328a2.634,2.634,0,1,1-5.268,0V3.138A2.636,2.636,0,0,1,14.824.5" transform="translate(-1.98 -0.081)"/>
      <path id="Path_31" data-name="Path 31" d="M14.824.5h0a2.636,2.636,0,0,1,2.634,2.638V14.328a2.634,2.634,0,1,1-5.268,0V3.138A2.636,2.636,0,0,1,14.824.5Z" transform="translate(-1.98 -0.081)" fill="rgba(0,0,0,0)" stroke="#fff" stroke-miterlimit="10" stroke-width="1"/>
      <path id="Path_32" data-name="Path 32" d="M58.864.5h0A2.636,2.636,0,0,1,61.5,3.138V14.328a2.634,2.634,0,1,1-5.268,0V3.138A2.636,2.636,0,0,1,58.864.5" transform="translate(-9.135 -0.081)"/>
      <path id="Path_33" data-name="Path 33" d="M58.864.5h0A2.636,2.636,0,0,1,61.5,3.138V14.328a2.634,2.634,0,1,1-5.268,0V3.138A2.636,2.636,0,0,1,58.864.5Z" transform="translate(-9.135 -0.081)" fill="rgba(0,0,0,0)" stroke="#fff" stroke-miterlimit="10" stroke-width="1"/>
      <rect id="Rectangle_12" data-name="Rectangle 12" width="50.059" height="31.617" transform="translate(5.93 24.464)" fill="#fff"/>
      <rect id="Rectangle_13" data-name="Rectangle 13" width="9.221" height="9.221" transform="translate(9.875 29.732)"/>
      <rect id="Rectangle_14" data-name="Rectangle 14" width="9.221" height="9.221" transform="translate(9.875 42.907)"/>
      <rect id="Rectangle_15" data-name="Rectangle 15" width="9.221" height="9.221" transform="translate(23.711 29.732)"/>
      <rect id="Rectangle_16" data-name="Rectangle 16" width="9.221" height="9.221" transform="translate(36.885 29.732)"/>
      <g id="Group_20" data-name="Group 20" transform="translate(39.163 40.269)" style="isolation: isolate">
        <g id="Group_19" data-name="Group 19">
          <g id="Group_18" data-name="Group 18" clip-path="url(#clip-path-4)">
            <text id="青" transform="translate(0 17.724)" font-size="23" font-family="HanWangHeiHeavy"><tspan x="0" y="0">青</tspan></text>
          </g>
        </g>
      </g>
      <rect id="Rectangle_18" data-name="Rectangle 18" width="9.221" height="9.221" transform="translate(23.711 42.907)"/>
      <path id="Path_34" data-name="Path 34" d="M61.821,50.44A17.781,17.781,0,1,1,44.04,68.221,17.781,17.781,0,0,1,61.821,50.44" transform="translate(-7.155 -8.195)"/>
      <path id="Path_35" data-name="Path 35" d="M62.459,54.37A14.489,14.489,0,1,1,47.97,68.859,14.489,14.489,0,0,1,62.459,54.37" transform="translate(-7.794 -8.833)" fill="#fff"/>
      <line id="Line_5" data-name="Line 5" x2="6.583" y2="7.253" transform="translate(46.106 60.026)" fill="none" stroke="#000" stroke-linecap="round" stroke-miterlimit="10" stroke-width="6"/>
      <line id="Line_6" data-name="Line 6" x1="11.198" y2="13.836" transform="translate(52.689 53.443)" fill="none" stroke="#000" stroke-linecap="round" stroke-miterlimit="10" stroke-width="6"/>
    </g>
  </g>
  <g id="Group_24" data-name="Group 24" transform="translate(507.07 215.964)">
    <g id="Group_23" data-name="Group 23" transform="translate(0 0)" clip-path="url(#clip-path-5)">
      <path id="Path_36" data-name="Path 36" d="M1.5,31.07v30.3H22.438" transform="translate(-0.244 -5.048)" fill="rgba(0,0,0,0)" stroke="#000" stroke-linecap="round" stroke-linejoin="round" stroke-width="3"/>
      <path id="Path_37" data-name="Path 37" d="M82.18,61.372h19.958V31.07" transform="translate(-13.352 -5.048)" fill="rgba(0,0,0,0)" stroke="#000" stroke-linecap="round" stroke-linejoin="round" stroke-width="3"/>
      <path id="Path_38" data-name="Path 38" d="M14.645.79A7.245,7.245,0,1,1,7.4,8.035,7.245,7.245,0,0,1,14.645.79" transform="translate(-1.202 -0.129)"/>
      <path id="Path_39" data-name="Path 39" d="M90.806,0A7.906,7.906,0,1,1,82.9,7.906,7.906,7.906,0,0,1,90.806,0" transform="translate(-13.468 0)"/>
      <path id="Path_40" data-name="Path 40" d="M82.105,16.52h0Z" transform="translate(-13.327 -2.684)"/>
      <path id="Path_41" data-name="Path 41" d="M80.893,15.482a9.279,9.279,0,0,0,4.372,3.132A5.595,5.595,0,1,1,79,10.13a9.212,9.212,0,0,0,1.868,5.318h.1Z" transform="translate(-12.19 -1.646)"/>
      <path id="Path_42" data-name="Path 42" d="M97.334,28.876a7.245,7.245,0,0,0-14.489,0V42.687a7.276,7.276,0,0,0,.276,1.968H73.606c-3.627.335-4.288,2.312-4.941,4.941a9.409,9.409,0,0,0-.335,1.977V65.409a3.627,3.627,0,0,0,7.245,0V53.9H91.387c2.513,0,5.595-1.742,5.595-4.28,0-.678.335-5.134.335-6.91Z" transform="translate(-11.101 -3.516)"/>
      <path id="Path_43" data-name="Path 43" d="M79.864,43.827H70.358c-3.618.31-4.28,2.152-4.941,4.606a8.241,8.241,0,0,0-.327,1.843V63.149a3.191,3.191,0,0,0,.377,1.482,3.451,3.451,0,0,1-3.007-3.35v-12.9a7.784,7.784,0,0,1,.327-1.843c.653-2.454,1.315-4.3,4.941-4.606h9.506a6.169,6.169,0,0,1-.285-1.843V29.2a2.419,2.419,0,0,1,1.315-.159,2.373,2.373,0,0,1,1.315.762V41.942a6.472,6.472,0,0,0,.285,1.884" transform="translate(-10.148 -4.714)"/>
      <path id="Path_44" data-name="Path 44" d="M31.056,45.006c-.838,0-9.883-.662-9.883-.662l.327-9.213,2.337,2.337a3.266,3.266,0,0,0,5.285.9l5.988-5.98a3.293,3.293,0,0,0-4.657-4.657l-3.518,3.509-6.256-6.256a6.608,6.608,0,0,0-5.762-3.409H13.593A6.609,6.609,0,0,0,7.01,28.163V50.232a4.958,4.958,0,0,0,4.941,4.941H28.091v11.2a3.953,3.953,0,0,0,7.9.364q.009-.182,0-.364V48.624c.017-2.169-2.764-3.618-4.933-3.618" transform="translate(-1.139 -3.506)"/>
    </g>
  </g>
  <g id="Group_26" data-name="Group 26" transform="translate(626.912 335.085)">
    <g id="Group_25" data-name="Group 25" transform="translate(0 0)" clip-path="url(#clip-path-6)">
      <path id="Path_45" data-name="Path 45" d="M51.13,8.238H45.5V13.5a5.938,5.938,0,0,1-5.9,5.946H17.821a5.93,5.93,0,0,1-5.938-5.921V8.246h-6.3A3.593,3.593,0,0,0,2,11.839V71.187A3.594,3.594,0,0,0,5.585,74.78H51.1A3.593,3.593,0,0,0,54.7,71.187V11.831A3.592,3.592,0,0,0,51.13,8.238Z" transform="translate(-0.325 -1.338)" fill="rgba(0,0,0,0)" stroke="#000" stroke-miterlimit="10" stroke-width="4"/>
      <path id="Path_46" data-name="Path 46" d="M35,4.6V4.27a4.28,4.28,0,0,0-8.56,0V4.6h-9.9V15.133H45.519V4.6Z" transform="translate(-2.687 0)"/>
      <path id="Path_47" data-name="Path 47" d="M16.58,42.749l10.536,9.875M42.929,36.158,25.8,53.294" transform="translate(-2.694 -5.874)" fill="rgba(0,0,0,0)" stroke="#000" stroke-miterlimit="10" stroke-width="4"/>
      <rect id="Rectangle_21" data-name="Rectangle 21" width="7.881" height="13.61" transform="matrix(0.692, -0.722, 0.722, 0.692, 56.087, 31.982)"/>
      <rect id="Rectangle_22" data-name="Rectangle 22" width="30.805" height="13.61" transform="matrix(0.692, -0.722, 0.722, 0.692, 33.794, 55.265)"/>
      <path id="Path_48" data-name="Path 48" d="M38.686,67.168l9.833,9.414L36.14,79.672Z" transform="translate(-5.872 -10.912)" fill="#fff"/>
      <path id="Path_49" data-name="Path 49" d="M38.686,67.168l9.833,9.414L36.14,79.672Z" transform="translate(-5.872 -10.912)" fill="rgba(0,0,0,0)" stroke="#000" stroke-miterlimit="10" stroke-width="1"/>
      <path id="Path_50" data-name="Path 50" d="M37.262,75.128l4.657,4.464L36.14,80.965Z" transform="translate(-5.872 -12.206)"/>
      <rect id="Rectangle_23" data-name="Rectangle 23" width="27.94" height="1.432" transform="translate(35.822 55.223) rotate(-46.256)" fill="#fff"/>
    </g>
  </g>
  <text id="第一步" transform="translate(95 413)" fill="#e32b2b" font-size="25" font-family="YuGothicUI-Semibold, Yu Gothic UI" font-weight="600" letter-spacing="0.003em"><tspan x="0" y="0">第一步</tspan></text>
  <text id="第二步" transform="translate(136 244)" fill="#ecb038" font-size="25" font-family="YuGothicUI-Semibold, Yu Gothic UI" font-weight="600" letter-spacing="0.003em"><tspan x="0" y="0">第二步</tspan></text>
  <text id="第三步" transform="translate(337 156)" fill="#d4d439" font-size="25" font-family="YuGothicUI-Semibold, Yu Gothic UI" font-weight="600" letter-spacing="0.003em"><tspan x="0" y="0">第三步</tspan></text>
  <text id="第四步" transform="translate(510 210)" fill="#47ee1d" font-size="25" font-family="YuGothicUI-Semibold, Yu Gothic UI" font-weight="600" letter-spacing="0.003em"><tspan x="0" y="0">第四步</tspan></text>
  <text id="第五步" transform="translate(625 325.5)" fill="#4931e7" font-size="25" font-family="YuGothicUI-Semibold, Yu Gothic UI" font-weight="600" letter-spacing="0.003em"><tspan x="0" y="0">第五步</tspan></text>
  <text id="服務流程" transform="translate(245 50)" fill="#616161" font-size="46" font-family="YuGothicUI-Bold, Yu Gothic UI" font-weight="700" letter-spacing="0.006em"><tspan x="0" y="0">服務流程</tspan></text>
  <g id="Group_27" data-name="Group 27" transform="translate(-1108 -566)">
    <path id="Polygon_1" data-name="Polygon 1" d="M15,0,30,27H0Z" transform="matrix(0.899, 0.438, -0.438, 0.899, 1233.436, 894.791)" fill="#707070"/>
    <line id="Line_7" data-name="Line 7" x1="14" y2="32" transform="translate(1227 913.5)" fill="none" stroke="#707070" stroke-width="6"/>
  </g>
  <g id="Group_28" data-name="Group 28" transform="translate(4.928 -1313.014) rotate(43)">
    <path id="Polygon_1-2" data-name="Polygon 1" d="M15,0,30,27H0Z" transform="matrix(0.899, 0.438, -0.438, 0.899, 1233.436, 894.791)" fill="#707070"/>
    <line id="Line_7-2" data-name="Line 7" x1="14" y2="32" transform="translate(1227 913.5)" fill="none" stroke="#707070" stroke-width="6"/>
  </g>
  <g id="Group_29" data-name="Group 29" transform="translate(1299.664 -1100.663) rotate(86)">
    <path id="Polygon_1-3" data-name="Polygon 1" d="M15,0,30,27H0Z" transform="matrix(0.899, 0.438, -0.438, 0.899, 1233.436, 894.791)" fill="#707070"/>
    <line id="Line_7-3" data-name="Line 7" x1="14" y2="32" transform="translate(1227 913.5)" fill="none" stroke="#707070" stroke-width="6"/>
  </g>
  <g id="Group_30" data-name="Group 30" transform="matrix(-0.358, 0.934, -0.934, -0.358, 1944.092, -545.858)">
    <path id="Polygon_1-4" data-name="Polygon 1" d="M15,0,30,27H0Z" transform="matrix(0.899, 0.438, -0.438, 0.899, 1233.436, 894.791)" fill="#707070"/>
    <line id="Line_7-4" data-name="Line 7" x1="14" y2="32" transform="translate(1227 913.5)" fill="none" stroke="#707070" stroke-width="6"/>
  </g>
  <text id="留言給我們" transform="translate(98 501)" font-size="13" font-family="YuGothicUI-Regular, Yu Gothic UI" letter-spacing="0.006em"><tspan x="0" y="0">留言給我們</tspan></text>
  <text id="電話初步諮詢" transform="translate(140 332)" font-size="13" font-family="YuGothicUI-Regular, Yu Gothic UI" letter-spacing="0.006em"><tspan x="0" y="0">電話初步諮詢</tspan></text>
  <text id="預約評估服務" transform="translate(330 254)" font-size="13" font-family="YuGothicUI-Regular, Yu Gothic UI" letter-spacing="0.006em"><tspan x="0" y="0">預約評估服務</tspan></text>
  <text id="分析孩子學習需要" transform="translate(489 295)" font-size="13" font-family="YuGothicUI-Regular, Yu Gothic UI" letter-spacing="0.006em"><tspan x="0" y="0">分析孩子學習需要</tspan></text>
  <text id="提供適合教學支援" transform="translate(586 429)" font-size="13" font-family="YuGothicUI-Regular, Yu Gothic UI" letter-spacing="0.006em"><tspan x="0" y="0">提供適合教學支援</tspan></text>
</svg>
