<svg id="Group_49" data-name="Group 49" xmlns="http://www.w3.org/2000/svg" xmlns:xlink="http://www.w3.org/1999/xlink" width="73.336" height="85.548" viewBox="0 0 73.336 85.548">
  <defs>
    <clipPath id="clip-path">
      <rect id="Rectangle_51" data-name="Rectangle 51" width="73.336" height="85.548" fill="none"/>
    </clipPath>
  </defs>
  <g id="Group_48" data-name="Group 48" clip-path="url(#clip-path)">
    <path id="Path_74" data-name="Path 74" d="M55.009,85.548,70.466,50.8a37.722,37.722,0,0,0,1.278-25.1A36.86,36.86,0,0,0,44.55.827,37.162,37.162,0,0,0,7.36,14.656C-3.207,28.536.6,44.464.969,45.918c.289,1.127,4.489,16.488,19.524,23.825a36.392,36.392,0,0,0,21.151,3.37,33.67,33.67,0,0,0,6.973-1.86l6.392,14.295" transform="translate(0 0)"/>
    <path id="Path_75" data-name="Path 75" d="M51.062,65.332l-4.114,1.582a28.82,28.82,0,0,1-10.417,1.939,32.741,32.741,0,0,1-14-3.289C9.285,59.1,5.622,45.344,5.472,44.762c-.391-1.527-3.563-15.271,5.587-27.29A32.649,32.649,0,0,1,36.876,4.648a31.435,31.435,0,0,1,6.684.72A32.019,32.019,0,0,1,67.305,27.077a32.88,32.88,0,0,1-1.117,21.9L55,74.135Z" transform="translate(0 0)" fill="#fff"/>
    <path id="Path_76" data-name="Path 76" d="M42.255,45.221H31.776l-1.68,5H22.937L33.1,21.925h7.919L51.174,50.218h-7.24ZM40.495,39.9l-3.48-10.358L33.576,39.9Z" transform="translate(0 0)"/>
  </g>
</svg>
