<svg id="faq" xmlns="http://www.w3.org/2000/svg" width="192.714" height="153.471" viewBox="0 0 192.714 153.471">
  <path id="Path_73" data-name="Path 73" d="M71.264,0H25.015A24.285,24.285,0,0,0,7.293,7.293,23.894,23.894,0,0,0,0,25.015V68.927A24.084,24.084,0,0,0,7.293,86.649a24.134,24.134,0,0,0,17.722,7.293H45.575a99.236,99.236,0,0,1-5.411,15.683c-2.149,4.972-5.85,9.724-10.931,14.256a87.714,87.714,0,0,0,26.128-11.37A76.754,76.754,0,0,0,75.075,93.958H91.637a24.472,24.472,0,0,0,17.722-7.293,23.953,23.953,0,0,0,7.293-17.722V25.03a24.285,24.285,0,0,0-7.293-17.722A23.8,23.8,0,0,0,91.637,0Zm82.493,88.939H139.109l-2.1,6.524h-13.19L139.564,55.91H153.71l15.667,39.553H155.843l-2.086-6.524Zm-2.729-8.563-4.564-14.209-4.579,14.209ZM75.922,59.125c1.709,1.129,2.839,1.851,3.356,2.133.784.423,1.851.91,3.168,1.474l-3.811,7.293a46.607,46.607,0,0,1-5.709-3.137Q70.1,65.054,68.974,64.16a30.48,30.48,0,0,1-11.433,1.866q-10.163,0-16.028-5-6.94-5.9-6.932-16.624,0-10.4,6.069-16.169T57.6,22.474c7.4,0,13.1,1.866,17.126,5.63q6.046,5.622,6.038,16.107,0,9.292-4.846,14.915ZM65.367,52.444q1.647-2.776,1.647-8.328c0-4.25-.847-7.277-2.509-9.1a8.956,8.956,0,0,0-6.932-2.729,8.576,8.576,0,0,0-6.665,2.792q-2.564,2.776-2.556,8.7,0,6.893,2.494,9.676A8.762,8.762,0,0,0,57.7,56.255,14.213,14.213,0,0,0,60.349,56a17.07,17.07,0,0,0-5.489-3l2.164-4.674a12.31,12.31,0,0,1,2.854.768,36.416,36.416,0,0,1,4,2.415c.439.282.941.6,1.49.925Zm127.347-2.023V94.334a29.318,29.318,0,0,1-2.149,11.213,27.905,27.905,0,0,1-6.414,9.441,31.047,31.047,0,0,1-3.858,3.262,32.346,32.346,0,0,1-4.25,2.541c-.063.063-.173.063-.22.11a27.7,27.7,0,0,1-5.8,1.929,31.47,31.47,0,0,1-6.461.659H142.387c.282.878.549,1.772.878,2.65.831,2.431,1.819,4.862,2.87,7.23v.063a29.62,29.62,0,0,0,3.874,6.414,50.088,50.088,0,0,0,6.022,6.414,4.129,4.129,0,0,1-3.764,7.073,97.581,97.581,0,0,1-14.476-4.972,88.255,88.255,0,0,1-12.876-6.963,83.4,83.4,0,0,1-11.213-8.83,90.571,90.571,0,0,1-8.281-9H90.947a30.611,30.611,0,0,1-7.842-.988,26.941,26.941,0,0,1-7.12-3.09,4.1,4.1,0,1,1,4.25-7.01,19.091,19.091,0,0,0,5.019,2.149,20.979,20.979,0,0,0,5.693.721h16.514a4.057,4.057,0,0,1,3.309,1.662,72.867,72.867,0,0,0,8.61,9.614,70.473,70.473,0,0,0,10.1,7.951,82.108,82.108,0,0,0,11.1,6.069c-.768-1.27-1.38-2.541-1.992-3.811-1.1-2.541-2.149-5.144-3.09-7.9-.878-2.6-1.709-5.3-2.431-8.014a3.977,3.977,0,0,1-.22-1.443,4.136,4.136,0,0,1,4.14-4.14h26.567a21.1,21.1,0,0,0,8.72-1.835c.063-.063.11-.063.173-.11a19.775,19.775,0,0,0,5.866-4.2,20.521,20.521,0,0,0,4.579-6.744,21.317,21.317,0,0,0,1.49-8.061V50.468a21.259,21.259,0,0,0-1.49-8.061,21.71,21.71,0,0,0-11.323-11.323,21.317,21.317,0,0,0-8.061-1.49H135.769a4.14,4.14,0,1,1,0-8.281h27.791a28.944,28.944,0,0,1,11.151,2.149,29.3,29.3,0,0,1,9.441,6.352,27.867,27.867,0,0,1,6.352,9.441,28.768,28.768,0,0,1,2.149,11.151h.063Z"/>
</svg>
