<svg id="Group_2684" data-name="Group 2684" xmlns="http://www.w3.org/2000/svg" xmlns:xlink="http://www.w3.org/1999/xlink" width="189" height="189" viewBox="0 0 189 189">
  <defs>
    <clipPath id="clip-path">
      <rect id="Rectangle_40" data-name="Rectangle 40" width="189" height="189" fill="none"/>
    </clipPath>
  </defs>
  <g id="Group_43" data-name="Group 43" clip-path="url(#clip-path)">
    <path id="Path_66" data-name="Path 66" d="M189,94.5A94.5,94.5,0,1,1,94.5,0,94.531,94.531,0,0,1,189,94.5" fill="#80d9a4"/>
    <path id="Path_67" data-name="Path 67" d="M133.269,69.058v47.856a33.985,33.985,0,0,1-1.817,9.692,42.672,42.672,0,0,1-4.241,8.481c-4.052,6.79-5.773,7.469-7.269,11.509a22.328,22.328,0,0,0-1.211,9.693v29.077c-.079.181-.17.369-.273.569A95.317,95.317,0,0,1,79.41,187.8c.388-8.487.769-18.985,1.157-27.272a40.427,40.427,0,0,0-1.817-9.086,42.329,42.329,0,0,0-7.269-13.327c-5.465-7.039-14.472-20.53-26.654-39.375a9.069,9.069,0,0,1,1.211-10.3c3.1-3.241,8.826-3.49,12.721,0q6.062,8.786,12.116,17.567a2.214,2.214,0,0,0,1.817,0,2.174,2.174,0,0,0,1.212-1.817q.3-25.443.605-50.885a5.926,5.926,0,0,1,11.51-.606q.3,19.691.606,39.375c-.1,2.054.933,3.556,1.817,3.635.933.085,2.338-1.339,2.423-3.635V48.462a5.876,5.876,0,0,1,11.51-1.212q.3,24.234.606,48.462a2.406,2.406,0,0,0,1.817.606,2.474,2.474,0,0,0,1.817-1.212V55.125a5.486,5.486,0,0,1,10.9,0q.3,20.6.606,41.193a2.53,2.53,0,0,0,1.817,2.423c1.084.133,2.514-1.127,2.423-3.029V68.452a5.9,5.9,0,0,1,4.846-3.634,6,6,0,0,1,6.058,4.24" fill="#fff"/>
    <path id="Path_68" data-name="Path 68" d="M109.81,109.644c-4.558-2.687-10.349-1.047-13.327,1.212-.028.021-.054.046-.083.068-.028-.022-.054-.047-.082-.068-2.978-2.259-8.769-3.9-13.327-1.212a11.891,11.891,0,0,0-5.452,10.9,11.282,11.282,0,0,0,1.211,4.24l17.568,18.779c.028-.059.054-.118.082-.177.029.059.055.118.083.177q8.784-9.39,17.567-18.779a11.262,11.262,0,0,0,1.212-4.24,11.891,11.891,0,0,0-5.452-10.9" fill="#ff1d25"/>
  </g>
</svg>
