<svg xmlns="http://www.w3.org/2000/svg" width="236.162" height="236.162" viewBox="0 0 236.162 236.162">
  <path id="Icon_metro-weather5" data-name="Icon metro-weather5" d="M187.072,31.448a51.182,51.182,0,0,0-7.284.519,73.229,73.229,0,0,0-118.273,0,51.181,51.181,0,0,0-7.284-.519,51.66,51.66,0,1,0,0,103.321,51.118,51.118,0,0,0,18.316-3.382,72.846,72.846,0,0,0,96.209,0,51.118,51.118,0,0,0,18.316,3.382,51.66,51.66,0,0,0,0-103.321ZM46.851,149.529a14.76,14.76,0,1,0,14.76,14.76A14.751,14.751,0,0,0,46.851,149.529Zm73.8,14.76a14.76,14.76,0,1,0,14.76,14.76A14.751,14.751,0,0,0,120.652,164.289Zm73.8-14.76a14.76,14.76,0,1,0,14.76,14.76A14.751,14.751,0,0,0,194.452,149.529Zm-29.52,59.04a14.76,14.76,0,1,0,14.76,14.76A14.751,14.751,0,0,0,164.932,208.569Zm-88.561,0a14.76,14.76,0,1,0,14.76,14.76A14.751,14.751,0,0,0,76.371,208.569Z" transform="translate(-2.571 -1.928)"/>
</svg>
