<svg xmlns="http://www.w3.org/2000/svg" width="28.288" height="28.288" viewBox="0 0 28.288 28.288">
  <path id="Icon_awesome-twitter-square" data-name="Icon awesome-twitter-square" d="M25.257,2.25H3.031A3.032,3.032,0,0,0,0,5.281V27.507a3.032,3.032,0,0,0,3.031,3.031H25.257a3.032,3.032,0,0,0,3.031-3.031V5.281A3.032,3.032,0,0,0,25.257,2.25ZM22.17,12.277c.013.177.013.36.013.537A11.7,11.7,0,0,1,10.4,24.6,11.728,11.728,0,0,1,4.041,22.74a8.725,8.725,0,0,0,1,.051,8.3,8.3,0,0,0,5.14-1.768,4.147,4.147,0,0,1-3.871-2.873,4.463,4.463,0,0,0,1.869-.076,4.142,4.142,0,0,1-3.315-4.066v-.051a4.139,4.139,0,0,0,1.869.524,4.132,4.132,0,0,1-1.844-3.448,4.089,4.089,0,0,1,.562-2.09,11.759,11.759,0,0,0,8.537,4.332,4.15,4.15,0,0,1,7.066-3.782,8.115,8.115,0,0,0,2.627-1,4.13,4.13,0,0,1-1.819,2.279,8.241,8.241,0,0,0,2.387-.644A8.717,8.717,0,0,1,22.17,12.277Z" transform="translate(0 -2.25)" fill="#fff"/>
</svg>
