<svg xmlns="http://www.w3.org/2000/svg" width="28.288" height="28.288" viewBox="0 0 28.288 28.288">
  <path id="Icon_awesome-linkedin" data-name="Icon awesome-linkedin" d="M26.268,2.25H2.014A2.029,2.029,0,0,0,0,4.289V28.5a2.029,2.029,0,0,0,2.014,2.039H26.268A2.035,2.035,0,0,0,28.288,28.5V4.289A2.035,2.035,0,0,0,26.268,2.25ZM8.55,26.5H4.357V13h4.2V26.5Zm-2.1-15.344A2.431,2.431,0,1,1,8.884,8.722,2.432,2.432,0,0,1,6.453,11.153ZM24.266,26.5H20.073V19.93c0-1.566-.032-3.58-2.178-3.58-2.185,0-2.519,1.7-2.519,3.466V26.5H11.183V13H15.2v1.844h.057a4.416,4.416,0,0,1,3.972-2.178c4.243,0,5.033,2.8,5.033,6.434Z" transform="translate(0 -2.25)" fill="#fff"/>
</svg>
