<svg xmlns="http://www.w3.org/2000/svg" width="28.288" height="28.288" viewBox="0 0 28.288 28.288">
  <path id="Icon_awesome-facebook-square" data-name="Icon awesome-facebook-square" d="M25.257,2.25H3.031A3.031,3.031,0,0,0,0,5.281V27.507a3.031,3.031,0,0,0,3.031,3.031H11.7V20.92H7.719V16.394H11.7v-3.45c0-3.924,2.336-6.092,5.915-6.092a24.1,24.1,0,0,1,3.506.306v3.852H19.143a2.263,2.263,0,0,0-2.552,2.445v2.939h4.343l-.695,4.527H16.591v9.617h8.666a3.031,3.031,0,0,0,3.031-3.031V5.281A3.031,3.031,0,0,0,25.257,2.25Z" transform="translate(0 -2.25)" fill="#fefefe"/>
</svg>
