<svg xmlns="http://www.w3.org/2000/svg" width="136.944" height="136.975" viewBox="0 0 136.944 136.975">
  <path id="Icon_awesome-wpforms" data-name="Icon awesome-wpforms" d="M136.944,15.455V126.02a13.055,13.055,0,0,1-13.205,13.205H13.205A13.1,13.1,0,0,1,0,125.989V15.455A13.055,13.055,0,0,1,13.205,2.25H123.77A13.048,13.048,0,0,1,136.944,15.455Zm-11.4,110.534V15.455a1.815,1.815,0,0,0-1.773-1.773h-2.843L87.21,36.486,68.472,21.233,49.765,36.486,16.048,13.652H13.205a1.815,1.815,0,0,0-1.773,1.773V125.989a1.815,1.815,0,0,0,1.773,1.773H123.77a1.774,1.774,0,0,0,1.773-1.773ZM45.913,49.325v11.31H23.446V49.325Zm0,22.743v11.4H23.446v-11.4Zm3.393-45.027L65.813,13.682H29.59L49.306,27.041ZM113.5,49.325v11.31H53.586V49.325Zm0,22.743v11.4H53.586v-11.4ZM87.638,27.041l19.716-13.358H71.162L87.638,27.041Zm25.86,67.83v11.4H83.114v-11.4H113.5Z" transform="translate(0 -2.25)"/>
</svg>
