<svg xmlns="http://www.w3.org/2000/svg" width="28.294" height="28.288" viewBox="0 0 28.294 28.288">
  <path id="Icon_awesome-instagram" data-name="Icon awesome-instagram" d="M14.145,9.129A7.253,7.253,0,1,0,21.4,16.381,7.241,7.241,0,0,0,14.145,9.129Zm0,11.968a4.715,4.715,0,1,1,4.715-4.715A4.724,4.724,0,0,1,14.145,21.1ZM23.386,8.832a1.692,1.692,0,1,1-1.692-1.692A1.688,1.688,0,0,1,23.386,8.832Zm4.8,1.717A8.371,8.371,0,0,0,25.9,4.622a8.427,8.427,0,0,0-5.927-2.285c-2.336-.133-9.336-.133-11.671,0A8.415,8.415,0,0,0,2.379,4.616,8.4,8.4,0,0,0,.094,10.543c-.133,2.335-.133,9.336,0,11.671a8.371,8.371,0,0,0,2.285,5.927,8.438,8.438,0,0,0,5.927,2.285c2.336.133,9.336.133,11.671,0A8.372,8.372,0,0,0,25.9,28.141a8.426,8.426,0,0,0,2.285-5.927c.133-2.335.133-9.329,0-11.665ZM25.173,24.72a4.774,4.774,0,0,1-2.689,2.689c-1.862.739-6.281.568-8.338.568s-6.483.164-8.338-.568A4.774,4.774,0,0,1,3.118,24.72c-.739-1.862-.568-6.281-.568-8.338S2.385,9.9,3.118,8.043A4.774,4.774,0,0,1,5.807,5.354c1.862-.739,6.281-.568,8.338-.568s6.483-.164,8.338.568a4.774,4.774,0,0,1,2.689,2.689c.739,1.862.568,6.281.568,8.338S25.911,22.864,25.173,24.72Z" transform="translate(0.005 -2.237)" fill="#fff"/>
</svg>
