<svg xmlns="http://www.w3.org/2000/svg" width="30.119" height="21.177" viewBox="0 0 30.119 21.177">
  <path id="Icon_awesome-youtube" data-name="Icon awesome-youtube" d="M30.54,7.813a3.784,3.784,0,0,0-2.663-2.68C25.528,4.5,16.109,4.5,16.109,4.5s-9.418,0-11.767.633a3.785,3.785,0,0,0-2.663,2.68,39.7,39.7,0,0,0-.629,7.3,39.7,39.7,0,0,0,.629,7.3,3.728,3.728,0,0,0,2.663,2.637c2.349.633,11.767.633,11.767.633s9.418,0,11.767-.633a3.728,3.728,0,0,0,2.663-2.637,39.7,39.7,0,0,0,.629-7.3,39.7,39.7,0,0,0-.629-7.3ZM13.029,19.588V10.632L20.9,15.11l-7.872,4.478Z" transform="translate(-1.05 -4.5)" fill="#fff"/>
</svg>
