<svg xmlns="http://www.w3.org/2000/svg" width="28.088" height="22.884" viewBox="0 0 28.088 22.884">
  <path id="Icon_awesome-weixin" data-name="Icon awesome-weixin" d="M19.922,9.175a7.458,7.458,0,0,1,.96.056c-.848-4-5.143-6.981-10.025-6.981C5.383,2.25.914,5.968.914,10.7c0,2.727,1.5,4.979,3.978,6.721L3.907,20.41l3.473-1.741a17.044,17.044,0,0,0,3.483.5c.317,0,.618-.015.935-.041a7.024,7.024,0,0,1-.317-2.084A8.135,8.135,0,0,1,19.922,9.175Zm-5.337-2.7a1.171,1.171,0,0,1,1.236,1.246,1.169,1.169,0,0,1-1.236,1.236,1.389,1.389,0,0,1-1.5-1.236A1.4,1.4,0,0,1,14.585,6.473ZM7.619,8.955a1.4,1.4,0,0,1-1.5-1.236,1.4,1.4,0,0,1,1.5-1.246A1.171,1.171,0,0,1,8.866,7.719,1.166,1.166,0,0,1,7.619,8.955ZM29,16.927c0-3.978-3.978-7.216-8.447-7.216-4.734,0-8.447,3.238-8.447,7.216s3.718,7.216,8.447,7.216a12.927,12.927,0,0,0,2.993-.506l2.727,1.5-.756-2.482C27.521,21.15,29,19.164,29,16.927ZM17.813,15.676a.993.993,0,0,1,0-1.987,1.133,1.133,0,0,1,1.246.986A1.133,1.133,0,0,1,17.813,15.676Zm5.47,0a.993.993,0,0,1,0-1.987,1.143,1.143,0,0,1,1.246.986A1.136,1.136,0,0,1,23.282,15.676Z" transform="translate(-0.914 -2.25)" fill="#fffefe"/>
</svg>
