<svg xmlns="http://www.w3.org/2000/svg" xmlns:xlink="http://www.w3.org/1999/xlink" width="40.03" height="25.844" viewBox="0 0 40.03 25.844">
  <defs>
    <clipPath id="clip-path">
      <rect id="Rectangle_956" data-name="Rectangle 956" width="40.03" height="25.844" fill="none"/>
    </clipPath>
  </defs>
  <g id="Group_2664" data-name="Group 2664" clip-path="url(#clip-path)">
    <path id="Path_1933" data-name="Path 1933" d="M39.825,6.407a.446.446,0,0,0-.6.136C38.349,7.9,35.7,8.213,32.779,8.461A13.606,13.606,0,0,0,20.015,0,13.6,13.6,0,0,0,7.253,8.46C4.331,8.213,1.682,7.9.8,6.542a.448.448,0,0,0-.6-.135.4.4,0,0,0-.155.545l.013.022C1.141,8.635,3.8,8.992,6.972,9.268a12.309,12.309,0,0,0-.555,3.655c0,7.124,6.1,12.921,13.6,12.921s13.6-5.8,13.6-12.923a12.323,12.323,0,0,0-.555-3.656c3.171-.272,5.833-.629,6.908-2.293a.4.4,0,0,0-.125-.554l-.019-.01M20.015.826A12.751,12.751,0,0,1,31.878,8.535a29.277,29.277,0,0,0-7.357,1.24,7.341,7.341,0,0,0-4.506,3.819,7.343,7.343,0,0,0-4.507-3.819,29.215,29.215,0,0,0-7.355-1.24A12.751,12.751,0,0,1,20.015.826m12.73,12.094c0,6.669-5.711,12.094-12.73,12.094S7.287,19.589,7.287,12.921a11.481,11.481,0,0,1,.569-3.582l.045,0c4.9.4,10.445.858,11.693,5.644l.421,1.618.421-1.618c1.246-4.784,6.8-5.243,11.693-5.644l.045,0a11.517,11.517,0,0,1,.57,3.582" transform="translate(0 0)" fill="#bf073f"/>
    <path id="Path_1934" data-name="Path 1934" d="M11.935,9.638a1.7,1.7,0,1,1-1.7,1.7,1.7,1.7,0,0,1,1.7-1.7" transform="translate(1.678 1.581)" fill="#bf073f"/>
    <path id="Path_1935" data-name="Path 1935" d="M22.936,9.638a1.7,1.7,0,1,1-1.7,1.7,1.7,1.7,0,0,1,1.7-1.7" transform="translate(3.483 1.581)" fill="#bf073f"/>
  </g>
</svg>
