<svg id="Group_47" data-name="Group 47" xmlns="http://www.w3.org/2000/svg" xmlns:xlink="http://www.w3.org/1999/xlink" width="161.553" height="173.506" viewBox="0 0 161.553 173.506">
  <defs>
    <clipPath id="clip-path">
      <rect id="Rectangle_19" data-name="Rectangle 19" width="161.553" height="173.506" fill="rgba(0,0,0,0)"/>
    </clipPath>
  </defs>
  <g id="Group_21" data-name="Group 21" transform="translate(0 0)" clip-path="url(#clip-path)">
    <path id="Path_29" data-name="Path 29" d="M22.412,12.69h91.777A22.413,22.413,0,0,1,136.6,35.1v68.282A22.413,22.413,0,0,1,114.189,125.8H22.412A22.413,22.413,0,0,1,0,103.384V35.1A22.413,22.413,0,0,1,22.412,12.69" transform="translate(0 11.011)"/>
    <path id="Path_30" data-name="Path 30" d="M18.064.5h0a5.878,5.878,0,0,1,5.874,5.883V31.335a5.874,5.874,0,1,1-11.748,0V6.383A5.878,5.878,0,0,1,18.064.5" transform="translate(10.577 0.434)"/>
    <path id="Path_31" data-name="Path 31" d="M18.064.5h0a5.878,5.878,0,0,1,5.874,5.883V31.335a5.874,5.874,0,1,1-11.748,0V6.383A5.878,5.878,0,0,1,18.064.5Z" transform="translate(10.577 0.434)" fill="rgba(0,0,0,0)" stroke="#fff" stroke-miterlimit="10" stroke-width="1"/>
    <path id="Path_32" data-name="Path 32" d="M62.1.5h0a5.878,5.878,0,0,1,5.874,5.883V31.335a5.874,5.874,0,1,1-11.748,0V6.383A5.878,5.878,0,0,1,62.1.5" transform="translate(48.789 0.434)"/>
    <path id="Path_33" data-name="Path 33" d="M62.1.5h0a5.878,5.878,0,0,1,5.874,5.883V31.335a5.874,5.874,0,1,1-11.748,0V6.383A5.878,5.878,0,0,1,62.1.5Z" transform="translate(48.789 0.434)" fill="rgba(0,0,0,0)" stroke="#fff" stroke-miterlimit="10" stroke-width="1"/>
    <rect id="Rectangle_12" data-name="Rectangle 12" width="111.631" height="70.505" transform="translate(13.223 54.555)" fill="#fff"/>
    <rect id="Rectangle_13" data-name="Rectangle 13" width="20.563" height="20.563" transform="translate(22.02 66.302)"/>
    <rect id="Rectangle_14" data-name="Rectangle 14" width="20.563" height="20.563" transform="translate(22.02 95.681)"/>
    <rect id="Rectangle_15" data-name="Rectangle 15" width="20.563" height="20.563" transform="translate(52.874 66.302)"/>
    <rect id="Rectangle_16" data-name="Rectangle 16" width="20.563" height="20.563" transform="translate(82.252 66.302)"/>
    <rect id="Rectangle_18" data-name="Rectangle 18" width="20.563" height="20.563" transform="translate(52.874 95.681)"/>
    <path id="Path_34" data-name="Path 34" d="M83.691,50.44A39.651,39.651,0,1,1,44.04,90.091,39.651,39.651,0,0,1,83.691,50.44" transform="translate(38.212 43.765)"/>
    <path id="Path_35" data-name="Path 35" d="M80.281,54.37A32.311,32.311,0,1,1,47.97,86.681,32.31,32.31,0,0,1,80.281,54.37" transform="translate(41.622 47.175)" fill="#fff"/>
    <line id="Line_5" data-name="Line 5" x2="14.68" y2="16.174" transform="translate(102.815 133.856)" fill="none" stroke="#000" stroke-linecap="round" stroke-miterlimit="10" stroke-width="6"/>
    <line id="Line_6" data-name="Line 6" x1="24.971" y2="30.854" transform="translate(117.495 119.176)" fill="none" stroke="#000" stroke-linecap="round" stroke-miterlimit="10" stroke-width="6"/>
  </g>
</svg>
