<svg id="Group_2680" data-name="Group 2680" xmlns="http://www.w3.org/2000/svg" xmlns:xlink="http://www.w3.org/1999/xlink" width="181.787" height="194.936" viewBox="0 0 181.787 194.936">
  <defs>
    <clipPath id="clip-path">
      <rect id="Rectangle_741" data-name="Rectangle 741" width="181.787" height="194.936" fill="none"/>
    </clipPath>
  </defs>
  <g id="Group_2050" data-name="Group 2050" clip-path="url(#clip-path)">
    <path id="Path_1430" data-name="Path 1430" d="M161.055,51.306A51.306,51.306,0,1,1,109.749,0a51.306,51.306,0,0,1,51.306,51.306" fill="#1a1311"/>
    <path id="Path_1431" data-name="Path 1431" d="M154.223,51.306A44.475,44.475,0,1,1,109.748,6.831a44.475,44.475,0,0,1,44.475,44.475" fill="#fff"/>
    <path id="Path_1432" data-name="Path 1432" d="M0,131.211l33.19-5.31q5.532,30.534,11.063,61.069L.443,194.936Q.221,163.073,0,131.211" fill="#070203"/>
    <path id="Path_1433" data-name="Path 1433" d="M39.386,128.113l20.578-8.851a29.7,29.7,0,0,1,11.726-2.434l44.917-1.77a7.85,7.85,0,0,1,3.983,2.213c.561.59,2.341,2.46,1.991,4.868a5.952,5.952,0,0,1-2.655,3.761,9.169,9.169,0,0,1-5.752,1.77l-28.543,7.966,29.207,4.2a25.7,25.7,0,0,0,4.424.664,27.138,27.138,0,0,0,6.638-.443,38.015,38.015,0,0,0,8.63-2.655c9.52-4.218,22.449-10,37.837-17.037a7.467,7.467,0,0,1,5.531.442,7.2,7.2,0,0,1,3.319,3.54,6.684,6.684,0,0,1-4.647,9.294l-45.138,29.207a11.864,11.864,0,0,1-3.539,2.213,15.169,15.169,0,0,1-4.2.885,34.7,34.7,0,0,1-5.089.221l-56.865-.443a12.878,12.878,0,0,0-5.754.664,24.979,24.979,0,0,0-9.514,5.753q-3.542-22.016-7.08-44.032" fill="#070203"/>
    <path id="Path_1434" data-name="Path 1434" d="M92.932,34.518a5.974,5.974,0,1,1-5.974-5.974,5.974,5.974,0,0,1,5.974,5.974" fill="#070203"/>
    <path id="Path_1435" data-name="Path 1435" d="M116.829,38.722a7.3,7.3,0,1,1-7.3-7.3,7.3,7.3,0,0,1,7.3,7.3" fill="#070203"/>
    <path id="Path_1436" data-name="Path 1436" d="M139.619,34.739a6.2,6.2,0,1,1-6.2-6.195,6.195,6.195,0,0,1,6.2,6.195" fill="#070203"/>
    <path id="Path_1437" data-name="Path 1437" d="M80.32,41.6l6.195,6.859,6.86-6.859,7.523,2.434a11.44,11.44,0,0,0-4.426,3.1,8.426,8.426,0,0,0-2.433,5.089,7.907,7.907,0,0,0,.663,3.54,8.628,8.628,0,0,0,1.549,2.434q-2.433,6.2-4.868,12.391l-8.85-.221q-2.655-8.409-5.311-16.817a11.244,11.244,0,0,1-1.327-3.761,7.259,7.259,0,0,1,0-3.1,6.89,6.89,0,0,1,1.549-2.876A8.483,8.483,0,0,1,80.32,41.6" fill="#070203"/>
    <path id="Path_1438" data-name="Path 1438" d="M139.67,41.6l-6.195,6.859-6.86-6.859-7.523,2.434a11.44,11.44,0,0,1,4.426,3.1,8.426,8.426,0,0,1,2.433,5.089,7.907,7.907,0,0,1-.663,3.54,8.628,8.628,0,0,1-1.549,2.434q2.433,6.2,4.868,12.391l8.85-.221q2.655-8.409,5.311-16.817a11.244,11.244,0,0,0,1.327-3.761,7.259,7.259,0,0,0,0-3.1,6.89,6.89,0,0,0-1.549-2.876A8.483,8.483,0,0,0,139.67,41.6" fill="#070203"/>
    <path id="Path_1439" data-name="Path 1439" d="M102.668,46.466l7.081,7.081,7.08-7.745,5.31,2.213a3.631,3.631,0,0,1,1.549,1.991,3.8,3.8,0,0,1-.442,2.655c-1.014,2.007-2.928,8.2-5.532,17.481l-15.267.663L96.915,55.1c-.235-.381-1.564-2.606-.664-4.646a5.43,5.43,0,0,1,2.213-2.213,11.664,11.664,0,0,1,4.2-1.77" fill="#070203"/>
  </g>
</svg>
